<svg xmlns="http://www.w3.org/2000/svg" viewBox="0 0 64 64" width="64" height="64" fill="currentColor" role="img" aria-label="Wei, as a cloud of dots">
  <g>
    <circle cx="32.11" cy="33.04" r="0.80" opacity="0.12"/>
    <circle cx="34.20" cy="29.62" r="0.81" opacity="0.13"/>
    <circle cx="28.64" cy="30.88" r="0.81" opacity="0.13"/>
    <circle cx="30.88" cy="27.44" r="0.81" opacity="0.14"/>
    <circle cx="29.85" cy="36.25" r="0.81" opacity="0.14"/>
    <circle cx="35.76" cy="34.97" r="0.81" opacity="0.14"/>
    <circle cx="37.76" cy="31.52" r="0.82" opacity="0.15"/>
    <circle cx="26.28" cy="34.07" r="0.82" opacity="0.15"/>
    <circle cx="33.52" cy="38.23" r="0.83" opacity="0.15"/>
    <circle cx="35.82" cy="25.86" r="0.83" opacity="0.16"/>
    <circle cx="25.56" cy="28.43" r="0.83" opacity="0.16"/>
    <circle cx="28.08" cy="24.91" r="0.84" opacity="0.17"/>
    <circle cx="39.27" cy="27.79" r="0.84" opacity="0.18"/>
    <circle cx="32.72" cy="23.53" r="0.85" opacity="0.18"/>
    <circle cx="27.62" cy="39.35" r="0.85" opacity="0.18"/>
    <circle cx="39.37" cy="36.72" r="0.85" opacity="0.18"/>
    <circle cx="23.03" cy="31.62" r="0.85" opacity="0.18"/>
    <circle cx="41.35" cy="33.19" r="0.86" opacity="0.19"/>
    <circle cx="31.27" cy="41.40" r="0.86" opacity="0.19"/>
    <circle cx="24.02" cy="37.13" r="0.86" opacity="0.19"/>
    <circle cx="37.09" cy="40.08" r="0.86" opacity="0.19"/>
    <circle cx="23.14" cy="25.66" r="0.88" opacity="0.21"/>
    <circle cx="42.80" cy="29.43" r="0.88" opacity="0.22"/>
    <circle cx="36.54" cy="21.53" r="0.88" opacity="0.22"/>
    <circle cx="30.36" cy="20.69" r="0.88" opacity="0.22"/>
    <circle cx="39.92" cy="23.68" r="0.88" opacity="0.23"/>
    <circle cx="26.15" cy="21.97" r="0.89" opacity="0.23"/>
    <circle cx="20.68" cy="34.66" r="0.89" opacity="0.23"/>
    <circle cx="34.73" cy="43.34" r="0.89" opacity="0.23"/>
    <circle cx="20.33" cy="28.88" r="0.89" opacity="0.24"/>
    <circle cx="25.69" cy="42.45" r="0.90" opacity="0.24"/>
    <circle cx="42.74" cy="38.38" r="0.90" opacity="0.25"/>
    <circle cx="22.10" cy="40.18" r="0.91" opacity="0.25"/>
    <circle cx="29.26" cy="44.57" r="0.91" opacity="0.25"/>
    <circle cx="40.35" cy="41.86" r="0.91" opacity="0.25"/>
    <circle cx="44.75" cy="34.73" r="0.91" opacity="0.26"/>
    <circle cx="43.41" cy="25.37" r="0.91" opacity="0.26"/>
    <circle cx="33.62" cy="18.67" r="0.92" opacity="0.27"/>
    <circle cx="21.70" cy="22.55" r="0.93" opacity="0.28"/>
    <circle cx="17.82" cy="31.91" r="0.93" opacity="0.28"/>
    <circle cx="46.18" cy="30.87" r="0.93" opacity="0.29"/>
    <circle cx="18.72" cy="37.69" r="0.94" opacity="0.29"/>
    <circle cx="37.76" cy="45.26" r="0.94" opacity="0.29"/>
    <circle cx="32.55" cy="46.62" r="0.94" opacity="0.30"/>
    <circle cx="38.92" cy="18.97" r="0.94" opacity="0.30"/>
    <circle cx="25.67" cy="18.59" r="0.94" opacity="0.30"/>
    <circle cx="18.43" cy="25.82" r="0.95" opacity="0.30"/>
    <circle cx="29.47" cy="17.05" r="0.95" opacity="0.31"/>
    <circle cx="42.65" cy="20.96" r="0.96" opacity="0.32"/>
    <circle cx="24.39" cy="45.64" r="0.96" opacity="0.32"/>
    <circle cx="46.76" cy="26.76" r="0.96" opacity="0.32"/>
    <circle cx="45.63" cy="40.01" r="0.97" opacity="0.33"/>
    <circle cx="20.81" cy="43.32" r="0.97" opacity="0.33"/>
    <circle cx="43.02" cy="43.66" r="0.97" opacity="0.34"/>
    <circle cx="47.74" cy="36.21" r="0.98" opacity="0.34"/>
    <circle cx="27.89" cy="47.84" r="0.98" opacity="0.35"/>
    <circle cx="34.89" cy="15.85" r="0.98" opacity="0.35"/>
    <circle cx="21.69" cy="19.18" r="0.98" opacity="0.35"/>
    <circle cx="15.79" cy="34.92" r="0.98" opacity="0.35"/>
    <circle cx="15.69" cy="28.84" r="0.99" opacity="0.35"/>
    <circle cx="35.18" cy="48.67" r="1.00" opacity="0.37"/>
    <circle cx="17.41" cy="40.81" r="1.00" opacity="0.37"/>
    <circle cx="46.10" cy="22.41" r="1.00" opacity="0.37"/>
    <circle cx="49.17" cy="32.19" r="1.00" opacity="0.37"/>
    <circle cx="40.01" cy="47.22" r="1.00" opacity="0.37"/>
    <circle cx="17.64" cy="22.50" r="1.00" opacity="0.37"/>
    <circle cx="39.13" cy="16.09" r="1.01" opacity="0.38"/>
    <circle cx="28.39" cy="14.55" r="1.02" opacity="0.40"/>
    <circle cx="30.94" cy="50.02" r="1.03" opacity="0.40"/>
    <circle cx="49.71" cy="27.95" r="1.03" opacity="0.41"/>
    <circle cx="43.51" cy="17.91" r="1.03" opacity="0.41"/>
    <circle cx="23.87" cy="15.71" r="1.03" opacity="0.41"/>
    <circle cx="13.55" cy="31.83" r="1.04" opacity="0.42"/>
    <circle cx="47.77" cy="41.71" r="1.04" opacity="0.42"/>
    <circle cx="20.64" cy="46.66" r="1.04" opacity="0.42"/>
    <circle cx="14.45" cy="38.03" r="1.04" opacity="0.43"/>
    <circle cx="44.77" cy="45.55" r="1.04" opacity="0.43"/>
    <circle cx="14.54" cy="25.49" r="1.05" opacity="0.43"/>
    <circle cx="24.36" cy="49.04" r="1.05" opacity="0.43"/>
    <circle cx="18.27" cy="19.03" r="1.05" opacity="0.44"/>
    <circle cx="50.05" cy="37.71" r="1.06" opacity="0.44"/>
    <circle cx="35.72" cy="13.38" r="1.06" opacity="0.44"/>
    <circle cx="49.07" cy="23.54" r="1.06" opacity="0.45"/>
    <circle cx="32.00" cy="12.86" r="1.06" opacity="0.45"/>
    <circle cx="17.14" cy="44.13" r="1.06" opacity="0.45"/>
    <circle cx="36.56" cy="50.83" r="1.07" opacity="0.46"/>
    <circle cx="40.94" cy="49.31" r="1.08" opacity="0.47"/>
    <circle cx="51.50" cy="33.49" r="1.08" opacity="0.47"/>
    <circle cx="46.84" cy="19.08" r="1.08" opacity="0.48"/>
    <circle cx="28.06" cy="51.36" r="1.09" opacity="0.48"/>
    <circle cx="20.70" cy="15.68" r="1.09" opacity="0.49"/>
    <circle cx="42.12" cy="14.90" r="1.09" opacity="0.49"/>
    <circle cx="30.21" cy="12.08" r="1.10" opacity="0.50"/>
    <circle cx="25.67" cy="13.01" r="1.10" opacity="0.50"/>
    <circle cx="12.19" cy="34.93" r="1.10" opacity="0.50"/>
    <circle cx="12.27" cy="28.43" r="1.10" opacity="0.50"/>
    <circle cx="14.65" cy="21.92" r="1.10" opacity="0.50"/>
    <circle cx="14.13" cy="41.36" r="1.11" opacity="0.51"/>
    <circle cx="51.99" cy="29.07" r="1.11" opacity="0.51"/>
    <circle cx="32.87" cy="52.27" r="1.11" opacity="0.51"/>
    <circle cx="48.84" cy="43.56" r="1.12" opacity="0.52"/>
    <circle cx="45.17" cy="47.62" r="1.12" opacity="0.52"/>
    <circle cx="38.49" cy="12.60" r="1.12" opacity="0.52"/>
    <circle cx="22.65" cy="50.31" r="1.13" opacity="0.53"/>
    <circle cx="18.58" cy="47.75" r="1.13" opacity="0.54"/>
    <circle cx="51.30" cy="24.50" r="1.14" opacity="0.54"/>
    <circle cx="51.38" cy="39.33" r="1.14" opacity="0.54"/>
    <circle cx="16.18" cy="18.33" r="1.15" opacity="0.56"/>
    <circle cx="49.19" cy="19.96" r="1.15" opacity="0.57"/>
    <circle cx="33.12" cy="11.02" r="1.16" opacity="0.57"/>
    <circle cx="39.56" cy="51.61" r="1.16" opacity="0.57"/>
    <circle cx="45.33" cy="15.74" r="1.16" opacity="0.57"/>
    <circle cx="12.20" cy="24.77" r="1.16" opacity="0.57"/>
    <circle cx="11.87" cy="38.28" r="1.16" opacity="0.57"/>
    <circle cx="10.91" cy="31.51" r="1.16" opacity="0.58"/>
    <circle cx="52.90" cy="34.89" r="1.16" opacity="0.58"/>
    <circle cx="15.29" cy="45.00" r="1.17" opacity="0.58"/>
    <circle cx="27.94" cy="52.79" r="1.17" opacity="0.58"/>
    <circle cx="23.64" cy="12.50" r="1.17" opacity="0.59"/>
    <circle cx="19.21" cy="15.03" r="1.18" opacity="0.59"/>
    <circle cx="34.59" cy="53.18" r="1.19" opacity="0.60"/>
    <circle cx="43.61" cy="49.93" r="1.19" opacity="0.61"/>
    <circle cx="53.31" cy="30.23" r="1.19" opacity="0.61"/>
    <circle cx="48.48" cy="45.65" r="1.19" opacity="0.61"/>
    <circle cx="28.92" cy="10.80" r="1.20" opacity="0.62"/>
    <circle cx="41.79" cy="12.91" r="1.20" opacity="0.62"/>
    <circle cx="23.57" cy="51.73" r="1.20" opacity="0.62"/>
    <circle cx="37.17" cy="11.16" r="1.20" opacity="0.63"/>
    <circle cx="13.51" cy="21.01" r="1.21" opacity="0.64"/>
    <circle cx="51.46" cy="41.18" r="1.21" opacity="0.64"/>
    <circle cx="52.51" cy="25.46" r="1.22" opacity="0.64"/>
    <circle cx="12.91" cy="41.97" r="1.22" opacity="0.65"/>
    <circle cx="18.78" cy="49.00" r="1.22" opacity="0.65"/>
    <circle cx="10.65" cy="34.88" r="1.22" opacity="0.65"/>
    <circle cx="10.87" cy="27.80" r="1.22" opacity="0.65"/>
    <circle cx="46.86" cy="16.38" r="1.23" opacity="0.66"/>
    <circle cx="50.38" cy="20.74" r="1.23" opacity="0.66"/>
    <circle cx="38.64" cy="52.51" r="1.24" opacity="0.67"/>
    <circle cx="32.00" cy="53.56" r="1.24" opacity="0.67"/>
    <circle cx="29.02" cy="53.34" r="1.24" opacity="0.68"/>
    <circle cx="53.08" cy="36.48" r="1.24" opacity="0.68"/>
    <circle cx="16.21" cy="17.36" r="1.25" opacity="0.68"/>
    <circle cx="24.56" cy="11.80" r="1.25" opacity="0.69"/>
    <circle cx="46.36" cy="48.03" r="1.25" opacity="0.69"/>
    <circle cx="31.80" cy="10.51" r="1.26" opacity="0.70"/>
    <circle cx="15.78" cy="46.05" r="1.26" opacity="0.70"/>
    <circle cx="20.07" cy="14.16" r="1.26" opacity="0.70"/>
    <circle cx="53.40" cy="31.57" r="1.27" opacity="0.71"/>
    <circle cx="11.69" cy="38.62" r="1.28" opacity="0.72"/>
    <circle cx="12.23" cy="23.92" r="1.28" opacity="0.72"/>
    <circle cx="42.37" cy="13.33" r="1.28" opacity="0.72"/>
    <circle cx="50.04" cy="43.34" r="1.28" opacity="0.73"/>
    <circle cx="21.44" cy="50.49" r="1.28" opacity="0.73"/>
    <circle cx="10.73" cy="31.16" r="1.28" opacity="0.73"/>
    <circle cx="42.12" cy="50.70" r="1.29" opacity="0.73"/>
    <circle cx="36.81" cy="11.30" r="1.29" opacity="0.73"/>
    <circle cx="52.41" cy="26.55" r="1.30" opacity="0.74"/>
    <circle cx="26.20" cy="52.20" r="1.30" opacity="0.75"/>
    <circle cx="46.74" cy="17.07" r="1.31" opacity="0.76"/>
    <circle cx="50.16" cy="21.62" r="1.31" opacity="0.76"/>
    <circle cx="32.30" cy="52.85" r="1.31" opacity="0.76"/>
    <circle cx="28.26" cy="11.51" r="1.31" opacity="0.77"/>
    <circle cx="51.80" cy="38.39" r="1.31" opacity="0.77"/>
    <circle cx="15.03" cy="20.07" r="1.32" opacity="0.77"/>
    <circle cx="14.30" cy="42.81" r="1.32" opacity="0.77"/>
    <circle cx="47.04" cy="45.85" r="1.33" opacity="0.79"/>
    <circle cx="37.22" cy="51.70" r="1.33" opacity="0.79"/>
    <circle cx="11.89" cy="34.97" r="1.34" opacity="0.79"/>
    <circle cx="18.76" cy="47.39" r="1.34" opacity="0.79"/>
    <circle cx="12.30" cy="27.24" r="1.34" opacity="0.80"/>
    <circle cx="23.70" cy="13.58" r="1.34" opacity="0.80"/>
    <circle cx="19.03" cy="16.52" r="1.34" opacity="0.80"/>
    <circle cx="52.01" cy="33.22" r="1.35" opacity="0.81"/>
    <circle cx="40.88" cy="14.06" r="1.35" opacity="0.81"/>
    <circle cx="34.15" cy="12.17" r="1.35" opacity="0.81"/>
    <circle cx="42.64" cy="48.67" r="1.35" opacity="0.82"/>
    <circle cx="50.79" cy="27.96" r="1.37" opacity="0.83"/>
    <circle cx="28.86" cy="50.92" r="1.37" opacity="0.84"/>
    <circle cx="49.02" cy="40.69" r="1.37" opacity="0.84"/>
    <circle cx="23.62" cy="49.05" r="1.37" opacity="0.84"/>
    <circle cx="14.45" cy="39.26" r="1.37" opacity="0.84"/>
    <circle cx="44.89" cy="18.05" r="1.37" opacity="0.84"/>
    <circle cx="15.38" cy="23.29" r="1.38" opacity="0.85"/>
    <circle cx="48.33" cy="22.80" r="1.38" opacity="0.85"/>
    <circle cx="13.69" cy="31.07" r="1.39" opacity="0.86"/>
    <circle cx="29.91" cy="13.84" r="1.39" opacity="0.86"/>
    <circle cx="18.37" cy="44.01" r="1.39" opacity="0.86"/>
    <circle cx="35.49" cy="49.67" r="1.39" opacity="0.87"/>
    <circle cx="37.57" cy="15.32" r="1.40" opacity="0.88"/>
    <circle cx="19.73" cy="19.56" r="1.40" opacity="0.88"/>
    <circle cx="49.08" cy="35.29" r="1.40" opacity="0.88"/>
    <circle cx="44.94" cy="43.40" r="1.41" opacity="0.88"/>
    <circle cx="24.83" cy="16.34" r="1.41" opacity="0.88"/>
    <circle cx="40.12" cy="46.45" r="1.42" opacity="0.90"/>
    <circle cx="16.35" cy="35.47" r="1.42" opacity="0.90"/>
    <circle cx="47.58" cy="29.81" r="1.43" opacity="0.91"/>
    <circle cx="17.09" cy="27.12" r="1.43" opacity="0.91"/>
    <circle cx="30.71" cy="47.59" r="1.43" opacity="0.91"/>
    <circle cx="24.38" cy="45.63" r="1.43" opacity="0.91"/>
    <circle cx="41.35" cy="19.53" r="1.43" opacity="0.91"/>
    <circle cx="44.87" cy="24.46" r="1.44" opacity="0.92"/>
    <circle cx="32.85" cy="17.28" r="1.44" opacity="0.92"/>
    <circle cx="20.05" cy="40.38" r="1.44" opacity="0.92"/>
    <circle cx="44.81" cy="37.85" r="1.45" opacity="0.93"/>
    <circle cx="21.83" cy="23.33" r="1.45" opacity="0.94"/>
    <circle cx="27.33" cy="19.98" r="1.46" opacity="0.94"/>
    <circle cx="34.71" cy="44.16" r="1.46" opacity="0.95"/>
    <circle cx="19.95" cy="31.59" r="1.46" opacity="0.95"/>
    <circle cx="39.74" cy="40.84" r="1.46" opacity="0.95"/>
    <circle cx="36.43" cy="21.65" r="1.47" opacity="0.96"/>
    <circle cx="27.42" cy="42.05" r="1.47" opacity="0.96"/>
    <circle cx="43.00" cy="32.20" r="1.47" opacity="0.96"/>
    <circle cx="23.58" cy="36.62" r="1.48" opacity="0.97"/>
    <circle cx="40.02" cy="26.71" r="1.48" opacity="0.97"/>
    <circle cx="24.93" cy="27.83" r="1.48" opacity="0.98"/>
    <circle cx="30.69" cy="24.44" r="1.49" opacity="0.98"/>
    <circle cx="32.07" cy="38.48" r="1.49" opacity="0.99"/>
    <circle cx="37.56" cy="35.13" r="1.49" opacity="0.99"/>
    <circle cx="28.56" cy="32.94" r="1.50" opacity="1.00"/>
    <circle cx="34.32" cy="29.57" r="1.50" opacity="1.00"/>
  </g>
</svg>
